<svg version="1.1" xmlns="http://www.w3.org/2000/svg" xmlns:xlink="http://www.w3.org/1999/xlink" x="0px" y="0px"
	 viewBox="0 0 1969.5 1393.6" style="enable-background:new 0 0 1969.5 1393.6;" xml:space="preserve" fill="#2a3429">
<g>
	<g>
		<g>
			<g>
				<path d="M524.2,1313.2c6.6,2,12.3,5.8,16.9,11.6c4.6,5.8,6.9,13.2,6.9,22.2c0,6.3-1,12.2-3,17.6c-2,5.4-5.3,10-10,13.9
					c-4.7,3.9-11,7-18.9,9.3c-7.9,2.3-17.9,3.4-29.8,3.4H353.1v-92.3h134.2c3.5,0,6.5-0.7,9.2-2.2c2.6-1.4,4-4.1,4-8
					c0-3.8-1.4-6.4-4.1-7.7c-2.7-1.4-5.7-2-9.1-2H353.1l31.7-39.4h100.4c9.1,0,17.3,0.9,24.6,2.6c7.3,1.7,13.6,4.4,18.8,7.9
					c5.2,3.6,9.2,7.9,12,13.1c2.8,5.2,4.2,11.3,4.2,18.3c0,4.5-0.6,8.5-1.8,12c-1.2,3.5-2.8,6.5-4.6,9.2c-1.9,2.6-4.1,4.8-6.6,6.6
					C529.3,1310.9,526.8,1312.3,524.2,1313.2z M400.2,1331.3v20.9h86.4c5.1,0,8.8-0.9,11.1-2.7c2.3-1.8,3.4-4.5,3.4-7.9
					c0-3.3-1.1-5.9-3.4-7.6c-2.3-1.7-6-2.6-11.1-2.6H400.2z"/>
				<path d="M768.6,1325c0,45.8-31.5,68.7-94.5,68.7c-18.3,0-34-1.4-47.2-4.3c-13.1-2.9-24-7.2-32.5-12.9
					c-8.5-5.7-14.8-12.9-18.8-21.4c-4-8.5-6-18.5-6-30v-85.5h46.7v85.5c0,5.6,0.8,10.3,2.3,14.1c1.5,3.8,4.3,6.8,8.5,9.2
					c4.2,2.3,10,4,17.6,5s17.4,1.5,29.5,1.5c9.1,0,16.6-0.5,22.7-1.6c6-1.1,10.9-2.8,14.5-5.2c3.6-2.4,6.2-5.5,7.8-9.3
					c1.6-3.8,2.4-8.3,2.4-13.6v-85.5h47.2V1325z"/>
				<path d="M948.8,1393.6c-3,0-6-0.5-8.9-1.5c-2.9-1-6.2-3.2-9.9-6.7l-92.9-83.4v89.1h-42.6v-125.8c0-5,0.7-9.3,2.2-12.9
					c1.4-3.6,3.3-6.6,5.7-8.8c2.3-2.3,5.1-3.9,8.2-5c3.1-1.1,6.3-1.6,9.6-1.6c2.9,0,5.8,0.5,8.7,1.5c2.9,1,6.3,3.2,10.1,6.7
					l92.9,83.4v-89.1h42.8v125.6c0,5-0.7,9.3-2.2,12.9c-1.4,3.6-3.3,6.6-5.7,8.9c-2.3,2.3-5.1,4-8.3,5.1
					C955.4,1393.1,952.2,1393.6,948.8,1393.6z"/>
				<path d="M1193.7,1391.2h-71l-45.8-39.9c-7.9-6.8-13.9-12.1-18-15.9c-4.2-3.8-7.5-7-10.1-9.5c0.1,3.5,0.3,7.1,0.5,10.8
					c0.1,3.7,0.2,7.4,0.2,11v43.5h-47.2v-151.7h47.2v35.1c0,4.7-0.1,9.3-0.2,13.8c-0.1,4.5-0.4,8.8-0.7,12.7c3-2.7,6.7-6.1,11-10.1
					c4.3-4,9.9-8.9,16.9-14.6l43.8-37h68l-58,43.5c-5,3.8-9.4,7.1-13.3,10c-3.8,2.9-7.3,5.4-10.3,7.5c-3,2.1-5.8,4-8.3,5.7
					c-2.5,1.7-5,3.2-7.4,4.8c4.4,3,9.7,6.8,15.9,11.3c6.2,4.5,14.2,10.8,24,18.8L1193.7,1391.2z"/>
				<path d="M1385.2,1352.2l-30.1,39h-146v-151.7h175.7l-30.4,39.4h-98.2v18.1h120.1l-27,34.5h-93.2v20.6H1385.2z"/>
				<path d="M1616.4,1391.2h-62.8l-33.8-40.1h-72.1v40.1h-46.9v-77.5h131.9c7.3,0,13.4-1.5,18.4-4.5c5-3,7.5-7.2,7.5-12.5
					c0-5.9-2.3-10.3-6.8-13.3c-4.5-2.9-10.9-4.4-19-4.4h-131.9l30.6-39.4h97.5c8.6,0,17.5,0.8,26.8,2.4c9.2,1.6,17.6,4.4,25.2,8.5
					c7.6,4.1,13.8,9.6,18.7,16.6c4.9,7,7.4,15.9,7.4,26.7c0,5.9-0.9,11.5-2.7,16.8c-1.8,5.3-4.4,10.1-7.8,14.3
					c-3.4,4.2-7.6,7.8-12.5,10.8c-4.9,2.9-10.5,5-16.7,6.2c2.6,2,5.4,4.5,8.6,7.5c3.2,3,7.4,7.2,12.7,12.5L1616.4,1391.2z"/>
			</g>
			<g>
				<g>
					<path d="M222.6,1031.1c0,13.9-1.9,26.5-5.6,38.1c-3.7,11.6-9.1,21.8-16.3,30.6c-7.1,8.8-15.8,16.2-26.1,22.1
						c-10.2,5.9-21.9,9.8-35,11.6c-35.2,4.8-52.8,7.4-87.9,12.7c0,28.5,0,42.8,0,71.3c-20.7,4.2-31,6.3-51.7,10.7
						c0-59.2,0-88.8,0-148c57.9-6.1,86.9-9,144.8-14.2c8-0.7,14.3-4,18.7-9.8c4.4-5.8,6.7-13.1,6.7-22.1c0-9-2.2-15.9-6.6-21
						c-4.4-5-10.7-7.4-18.7-7c-58,2.9-87,4.4-144.9,7.8c13.8-30.9,20.7-46,34.5-75.4c42.3-0.1,63.4-0.2,105.7-0.3
						c13.1,0,24.8,2.3,35,7c10.2,4.6,18.9,11,25.9,19.2c7,8.1,12.4,17.8,16,29.1C220.8,1004.7,222.6,1017.2,222.6,1031.1z"/>
					<path d="M319.8,1171.1c12.7-25.8,19-38.5,31.6-63.3c16.9-1.7,25.4-2.6,42.3-4.2c5-0.5,10.3-1,15.7-1.5
						c5.5-0.5,14.2-0.6,14.2-0.6c0.3-0.5-5.1-8.5-8.1-14.3c-3.1-5.8-6-11.2-8.9-16.3c-12-22.6-18-34-30-57.4
						c-27.5,53.1-54,106.7-79.5,160.9c-24.6,3.7-37,5.6-61.6,9.6c34.2-75.7,70.3-150.5,108.5-224.3c3.5-6.7,8-12.7,13.4-17.9
						c5.4-5.3,12.2-7.8,20.4-7.8c7.9,0,14.5,2.4,19.7,7.2c5.3,4.8,9.7,10.6,13.4,17.7c34,63.4,68.8,126,104.6,188.4
						C450.2,1153.7,384.9,1161.7,319.8,1171.1z"/>
					<path d="M587.2,1140.4c-20.9,1.8-31.3,2.7-52.2,4.8c0.2-69.3,0.5-138.6,0.7-207.9c20.8,0,31.3,0,52.1-0.1
						C587.6,1005,587.4,1072.7,587.2,1140.4z"/>
					<path d="M790.7,1130.6c-3.4,0.1-6.7-0.3-10-1.4c-3.3-1.1-6.9-3.7-11-7.9c-41.3-40.3-61.9-60.5-103.1-102.7
						c-0.1,46.3-0.2,69.5-0.3,115.8c-19,1.3-28.4,2-47.4,3.5c0.2-66.6,0.3-99.9,0.5-166.4c0-6.6,0.8-12.3,2.4-17.1
						c1.6-4.8,3.7-8.7,6.3-11.7c2.6-3,5.6-5.2,9.1-6.6c3.4-1.4,7-2.1,10.7-2.1c3.2,0,6.4,0.6,9.7,1.9c3.3,1.3,7,4.2,11.2,8.7
						c41.2,43.2,61.8,63.9,103,104.9c0.1-44.9,0.1-67.4,0.2-112.3c19,0,28.6,0,47.6,0c-0.1,62.7-0.2,94.1-0.3,156.8
						c0,6.2-0.8,11.6-2.4,16.2c-1.6,4.6-3.7,8.4-6.3,11.4c-2.6,3-5.7,5.3-9.2,6.7C798,1129.6,794.4,1130.4,790.7,1130.6z"/>
					<path d="M1059.7,937c-13.5,19.5-20.2,29.1-33.7,48.5c-24.1-0.1-36.1-0.1-60.2,0c0,55.2,0,82.8,0,138
						c-20.9,0.1-31.3,0.2-52.2,0.5c0-55.3,0.1-83,0.1-138.3c-31.6,0.1-47.5,0.2-79.1,0.5c13.5-19.8,20.3-29.6,33.8-49.1
						C932.1,937,995.9,937,1059.7,937z"/>
					<path d="M1249,1031.3c0,0.5,13.7,7.8,18.8,15.4c5.1,7.6,7.7,17.2,7.8,28.9c0,8.2-1.1,15.7-3.2,22.5c-2.2,6.8-5.9,12.6-11,17.3
						c-5.2,4.8-12.2,8.3-21,10.7c-8.8,2.4-19.9,3.3-33.1,2.6c-59.3-2.8-89-3.8-148.3-4.7c0-45.5-0.1-68.3-0.1-113.8
						c59.7,0.4,89.5,0.8,149.1,1.9c3.9,0.1,7.3-0.8,10.2-2.5c2.9-1.8,4.4-5.1,4.4-10.1c0-4.8-1.5-8.1-4.6-9.8
						c-3-1.8-6.4-2.7-10.1-2.7c-59.6-0.8-89.5-1-149.1-1.3c14.1-19.4,21.1-29.1,35.2-48.6c44.6,0,66.9,0,111.5,0.1
						c10.1,0,19.2,1.1,27.3,3.3c8.1,2.2,15.1,5.6,20.9,10.2c5.8,4.6,10.3,10.2,13.4,17c3.1,6.7,4.7,14.6,4.7,23.5
						c0,5.8-0.6,11-2,15.4c-1.3,4.4-3,8.3-5.1,11.7c-2.1,3.3-4.5,6.1-7.3,8.2C1254.6,1028.6,1249,1031.3,1249,1031.3z
						 M1111.2,1050.9c0,10.3,0,15.5,0,25.9c38.4,0.8,57.6,1.3,96,2.7c5.7,0.2,9.8-0.8,12.3-3c2.5-2.2,3.8-5.5,3.8-9.9
						c0-4.2-1.3-7.5-3.8-9.8c-2.5-2.3-6.6-3.5-12.4-3.7C1168.8,1052,1149.6,1051.5,1111.2,1050.9z"/>
					<path d="M1373.2,1139.6c12.5-19.8,18.8-29.7,31.3-50c16.9,1.1,25.4,1.7,42.3,3c5,0.4,10.3,0.8,15.7,1.2
						c5.5,0.4,14.2,1.7,14.2,1.7c0.2-0.3-5.1-9-8.2-15c-3.1-6-6.1-11.6-9-16.8c-12.2-23-18.2-34.3-30.4-56.7
						c-31.4,54-47.2,80-78.7,130.7c-24.7-1.9-37.1-2.8-61.8-4.5c36.9-58.3,72.4-117.3,107.5-176.5c3.5-5.9,7.9-11.2,13.3-15.8
						c5.4-4.7,12.1-7.1,20.4-7.1c7.9,0,14.5,2.2,19.8,6.7c5.3,4.5,9.8,10.1,13.5,16.9c36.8,66.7,72.2,134.3,105.9,202.7
						C1504,1152,1438.7,1145.1,1373.2,1139.6z"/>
					<path d="M1770,1125.2c-13.4,24.2-20.1,36-33.5,59.2c-59.4-9.7-89.2-14-148.7-21.8c-0.2-75-0.5-150-0.7-225
						c20.8,0,31.3,0.1,52.1,0.1c0.2,68.9,0.3,103.4,0.5,172.3C1691.9,1115.6,1717.9,1118.6,1770,1125.2z"/>
					<path d="M1969.5,1153.8c-13.5,27.6-20.2,41.1-33.6,67.4c-59.3-12.2-89-17.9-148.4-28.2c-0.2-85-0.3-169.9-0.5-254.9
						c20.8,0.1,31.3,0.1,52.1,0.2c0.1,65.4,0.2,130.8,0.3,196.2C1891.5,1141.6,1917.5,1145.5,1969.5,1153.8z"/>
				</g>
			</g>
		</g>
	</g>
	<path d="M186.3,875.8c31.5-386.3,354.9-690,749.3-690s717.8,303.7,749.3,690h186.3C1839.3,386.8,1432.7,0,935.6,0
		S31.9,386.8,0,875.8H186.3z"/>
	<path d="M412.8,874c36.7-255.9,256.7-452.7,522.8-452.7c266.1,0,486.1,196.8,522.8,452.7h131.7
		c-37.5-328.3-316.2-583.3-654.5-583.3c-338.3,0-617,255-654.5,583.3H412.8z"/>
	<path d="M631.9,875.8c12.8-156.6,143.8-279.7,303.7-279.7c159.9,0,290.9,123.1,303.7,279.7h75.5c-12.9-198.2-177.7-355-379.2-355
		s-366.3,156.8-379.2,355H631.9z"/>
</g>
</svg>
